:FULLY-SPECIFIED
:FORCE-ALL-JOINTS-BE-3DOF
:DEGREES
1427
root -2.08822 13.7094 12.6893 366.659 27.3583 366.554
lfemur 25.512 -0.26548 -10.2936
ltibia 17.0932 -0 0
lfoot -15.7232 34.5744 -2.42884e-06
ltoes -24.3448 0 0
rfemur -65.6041 -21.3632 12.114
rtibia 74.18 -0 0
rfoot -9.21172 10.3679 -0.000153142
rtoes 4.65185 0 0
lowerback 10.25 2.02294 -10.2653
upperback -3.36184 1.19553 -0.957955
thorax -9.65525 1.1628 4.51856
lowerneck -0.0135629 -11.6599 -10.5312
upperneck 6.15118 -16.0416 9.64607
head 3.4627 -7.97469 3.87553
lclavicle 9.52665e-15 -2.51549e-14 -1.9327e-32
lhumerus -73.8174 -18.1412 104.39
lradius 100.802 -0 0
lwrist 58.3915 0 0
lhand -9.70373 41.6711 0.000123757
lfingers 7.12502 -0 0
lthumb 16.2761 70.9962 0.000109774
rclavicle 8.25649e-14 6.24497e-15 -1.79693e-32
rhumerus 63.1975 -13.9702 -27.9219
rradius 82.0208 -0 0
rwrist 26.7926 0 0
rhand -43.9084 -30.998 -0.000267561
rfingers 7.12502 -0 0
rthumb -16.6781 -60.4634 -2.16964e-05
1428
root -2.09095 13.7089 12.6884 366.659 27.3319 366.513
lfemur 25.4993 -0.261713 -10.2952
ltibia 17.1092 -0 0
lfoot -15.7234 34.5875 -2.6634e-06
ltoes -24.3671 0 0
rfemur -65.6747 -21.4186 12.1427
rtibia 74.1931 -0 0
rfoot -9.21634 10.4099 -0.000120962
rtoes 4.66143 -0 0
lowerback 10.2162 2.0162 -10.2186
upperback -3.35863 1.19929 -0.936888
thorax -9.63094 1.16138 4.51537
lowerneck -0.0300741 -11.654 -10.5376
upperneck 6.13933 -16.0295 9.62413
head 3.4593 -7.96907 3.87025
lclavicle 9.97547e-15 -2.51116e-14 -5.01585e-33
lhumerus -73.8298 -18.1808 104.422
lradius 100.792 -0 0
lwrist 58.4029 0 0
lhand -9.71074 41.6209 0.000160444
lfingers 7.12502 -0 0
lthumb 16.272 70.9405 0.000146175
rclavicle 8.30602e-14 6.26172e-15 0
rhumerus 63.1555 -13.9694 -27.8839
rradius 82.0699 -0 0
rwrist 26.7905 0 0
rhand -43.8758 -31.0195 -0.000349673
rfingers 7.12502 -0 0
rthumb -16.6679 -60.466 -1.97857e-05
1429
root -2.09385 13.7096 12.6875 366.657 27.29 366.479
lfemur 25.4626 -0.250827 -10.3
ltibia 17.1148 0 0
lfoot -15.7237 34.6011 -2.84773e-06
ltoes -24.3965 0 0
rfemur -65.7453 -21.474 12.1715
rtibia 74.2051 -0 0
rfoot -9.22043 10.4471 -8.96438e-05
rtoes 4.6893 -0 0
lowerback 10.1998 2.00932 -10.193
upperback -3.36437 1.19648 -0.923438
thorax -9.62655 1.15899 4.51646
lowerneck -0.0430407 -11.652 -10.4902
upperneck 6.15585 -16.0225 9.56096
head 3.45668 -7.96576 3.84452
lclavicle 1.01303e-14 -2.50966e-14 0
lhumerus -73.8417 -18.2186 104.453
lradius 100.788 0 0
lwrist 58.4145 0 0
lhand -9.7185 41.5654 0.000193852
lfingers 7.12502 -0 0
lthumb 16.2674 70.878 0.000182246
rclavicle 8.25052e-14 6.37923e-15 8.58386e-32
rhumerus 63.1123 -13.9686 -27.8447
rradius 82.1239 -0 0
rwrist 26.7836 0 0
rhand -43.8397 -31.0434 -0.000426513
rfingers 7.12502 -0 0
rthumb -16.6583 -60.4684 -1.75415e-05
1430
root -2.09957 13.7123 12.6833 366.635 27.195 366.258
lfemur 25.404 -0.233447 -10.3076
ltibia 17.1419 -0 0
lfoot -15.724 34.615 -2.97468e-06
ltoes -24.432 0 0
rfemur -65.8146 -21.5283 12.1999
rtibia 74.2158 -0 0
rfoot -9.22392 10.4788 -6.07809e-05
rtoes 4.73415 -0 0
lowerback 10.1946 2.03343 -10.0057
upperback -3.40441 1.25676 -0.878786
thorax -9.67137 1.18165 4.44794
lowerneck -0.030902 -11.6484 -10.4985
upperneck 6.11941 -16.0195 9.60289
head 3.44755 -7.96398 3.85995
lclavicle 1.02342e-14 -2.50306e-14 -1.37671e-32
lhumerus -73.8529 -18.2543 104.482
lradius 100.786 -0 0
lwrist 58.4263 0 0
lhand -9.72684 41.5058 0.000221371
lfingers 7.12502 -0 0
lthumb 16.2624 70.8098 0.000215892
rclavicle 8.0913e-14 6.71636e-15 3.2578e-31
rhumerus 63.0684 -13.9678 -27.8049
rradius 82.1821 -0 0
rwrist 26.7637 0 0
rhand -43.8007 -31.0692 -0.000492535
rfingers 7.12502 -0 0
rthumb -16.6492 -60.4707 -1.50544e-05
1431
root -2.10052 13.7102 12.6851 366.674 27.2085 366.442
lfemur 25.3256 -0.210199 -10.3178
ltibia 17.2205 -0 0
lfoot -15.7242 34.6291 -3.0394e-06
ltoes -24.4726 0 0
rfemur -65.8811 -21.5803 12.2271
rtibia 74.225 -0 0
rfoot -9.22675 10.5046 -3.59587e-05
rtoes 4.79468 -0 0
lowerback 10.1973 2.01609 -10.1603
upperback -3.36448 1.21119 -0.913604
thorax -9.62651 1.16443 4.50606
lowerneck -0.0623379 -11.6446 -10.4538
upperneck 6.08184 -16.0078 9.5764
head 3.43442 -7.95734 3.84603
lclavicle 1.05348e-14 -2.48397e-14 -5.29453e-32
lhumerus -73.8633 -18.2874 104.509
lradius 100.779 -0 0
lwrist 58.4381 0 0
lhand -9.73559 41.4432 0.000240924
lfingers 7.12502 -0 0
lthumb 16.257 70.7369 0.000245241
rclavicle 7.83928e-14 7.24999e-15 6.86422e-31
rhumerus 63.0242 -13.9669 -27.7648
rradius 82.2438 -0 0
rwrist 26.7323 0 0
rhand -43.7595 -31.0964 -0.000543152
rfingers 7.12502 -0 0
rthumb -16.6407 -60.4728 -1.24282e-05
1432
root -2.10507 13.7133 12.6811 366.687 27.1164 366.337
lfemur 25.2294 -0.181712 -10.3303
ltibia 17.3469 -0 0
lfoot -15.7245 34.6432 -3.0394e-06
ltoes -24.5173 0 0
rfemur -65.9434 -21.6289 12.2527
rtibia 74.2325 -0 0
rfoot -9.22886 10.5238 -1.6686e-05
rtoes 4.86959 -0 0
lowerback 10.1999 2.02562 -10.0784
upperback -3.39853 1.23491 -0.889731
thorax -9.6672 1.17475 4.48096
lowerneck -0.0769358 -11.6496 -10.4778
upperneck 6.09649 -16.0156 9.59648
head 3.44555 -7.96061 3.85322
lclavicle 1.10158e-14 -2.45341e-14 -1.13546e-31
lhumerus -73.8728 -18.3174 104.533
lradius 100.769 -0 0
lwrist 58.4499 0 0
lhand -9.74458 41.3789 0.000251069
lfingers 7.12502 -0 0
lthumb 16.2514 70.6604 0.00026871
rclavicle 7.50537e-14 7.957e-15 1.12809e-30
rhumerus 62.9803 -13.9659 -27.725
rradius 82.3083 -0 0
rwrist 26.6904 0 0
rhand -43.7169 -31.1246 -0.000574934
rfingers 7.12502 -0 0
rthumb -16.6331 -60.4748 -9.77637e-06
1433
root -2.10737 13.7097 12.6837 366.694 27.1176 366.483
lfemur 25.1175 -0.148615 -10.3449
ltibia 17.5172 -0 0
lfoot -15.7247 34.6573 -2.97469e-06
ltoes -24.5651 0 0
rfemur -66 -21.6731 12.276
rtibia 74.238 -0 0
rfoot -9.23017 10.5357 -4.32283e-06
rtoes 4.95756 -0 0
lowerback 10.2167 2.02758 -10.2089
upperback -3.36262 1.21697 -0.918938
thorax -9.63864 1.17038 4.52601
lowerneck -0.0624861 -11.6602 -10.4676
upperneck 6.04953 -16.0288 9.60364
head 3.43018 -7.96754 3.8551
lclavicle 1.16608e-14 -2.41244e-14 -1.90781e-31
lhumerus -73.8813 -18.3441 104.555
lradius 100.755 -0 0
lwrist 58.4615 0 0
lhand -9.75366 41.314 0.000251069
lfingers 7.12502 -0 0
lthumb 16.2456 70.5813 0.000285063
rclavicle 7.1005e-14 8.81427e-15 1.60836e-30
rhumerus 62.9371 -13.965 -27.6859
rradius 82.3749 -0 0
rwrist 26.6395 0 0
rhand -43.6735 -31.1532 -0.000585766
rfingers 7.12502 -0 0
rthumb -16.6264 -60.4765 -7.21925e-06
1434
root -2.11154 13.7089 12.6832 366.732 27.0886 366.537
lfemur 24.9921 -0.111537 -10.3614
ltibia 17.7276 -0 0
lfoot -15.725 34.6712 -2.84773e-06
ltoes -24.6148 0 0
rfemur -66.0496 -21.7117 12.2964
rtibia 74.2415 -0 0
rfoot -9.23062 10.5398 0
rtoes 5.05728 -0 0
lowerback 10.2265 2.01719 -10.2723
upperback -3.36805 1.19223 -0.923916
thorax -9.64893 1.16278 4.56053
lowerneck -0.0669102 -11.6413 -10.4433
upperneck 6.0258 -16.0022 9.60866
head 3.41955 -7.95381 3.85574
lclavicle 1.24533e-14 -2.36209e-14 -2.79371e-31
lhumerus -73.8885 -18.3668 104.573
lradius 100.738 -0 0
lwrist 58.4729 0 0
lhand -9.76265 41.2497 0.000240924
lfingers 7.12502 -0 0
lthumb 16.2396 70.5006 0.000293455
rclavicle 6.63558e-14 9.79869e-15 2.08513e-30
rhumerus 62.8951 -13.9641 -27.6478
rradius 82.4429 -0 0
rwrist 26.5808 0 0
rhand -43.6302 -31.1819 -0.000574934
rfingers 7.12502 -0 0
rthumb -16.6206 -60.4779 -4.87981e-06
